<svg width="1080" height="1080" viewBox="0 0 1080 1080" fill="none" xmlns="http://www.w3.org/2000/svg">
<path d="M899.918 520.913V781.355C899.918 801.868 883.289 818.497 862.776 818.497H788.027H676.137L333.963 818.497L407.377 721.63C414.398 712.365 425.353 706.922 436.978 706.922L750.886 706.922C771.399 706.922 788.027 690.293 788.027 669.78V632.488C788.027 611.975 771.399 595.346 750.886 595.346H601.263C580.75 595.346 564.121 578.717 564.121 558.205V483.771V450.309C564.121 429.796 580.75 413.167 601.263 413.167L650.281 413.167C664.386 413.167 675.819 424.601 675.819 438.705V465.2C675.819 475.457 684.134 483.771 694.39 483.771H788.027H862.776C883.289 483.771 899.918 500.4 899.918 520.913Z" fill="#8F00FF"/>
<path d="M180.082 781.994V298.006C180.082 277.493 196.711 260.864 217.224 260.864H291.973H403.863H688.833L599.3 360.169C592.257 367.98 582.232 372.44 571.715 372.44H329.114C308.602 372.44 291.973 389.069 291.973 409.581V446.873C291.973 467.386 308.602 484.015 329.114 484.015H485C505.513 484.015 522.142 500.644 522.142 521.157V558.449C522.142 578.962 505.513 595.591 485 595.591H329.114C308.602 595.591 291.973 612.219 291.973 632.732V781.994C291.973 802.507 275.344 819.136 254.831 819.136H217.224C196.711 819.136 180.082 802.507 180.082 781.994Z" fill="url(#paint0_linear_181_1002)"/>
<defs>
<linearGradient id="paint0_linear_181_1002" x1="180.082" y1="260.864" x2="579.748" y2="734.607" gradientUnits="userSpaceOnUse">
<stop offset="0.172753" stop-color="#83C3FF"/>
<stop offset="1" stop-color="#8F00FF"/>
</linearGradient>
</defs>
</svg>
